<?xml version="1.0" standalone="no"?>
<!DOCTYPE svg PUBLIC "-//W3C//DTD SVG 20010904//EN"
 "http://www.w3.org/TR/2001/REC-SVG-20010904/DTD/svg10.dtd">
<svg version="1.0" xmlns="http://www.w3.org/2000/svg"
 width="591.000000pt" height="591.000000pt" viewBox="0 0 591.000000 591.000000"
 preserveAspectRatio="xMidYMid meet">
<metadata>
Created by potrace 1.14, written by Peter Selinger 2001-2017
</metadata>
<g transform="translate(0.000000,591.000000) scale(0.100000,-0.100000)"
fill="#000000" stroke="none">
<path d="M2846 4848 c-10 -29 -40 -110 -67 -179 -49 -127 -50 -127 -87 -134
-121 -23 -414 -142 -503 -206 -15 -10 -36 -19 -48 -19 -30 0 -132 40 -248 98
l-101 51 -120 -120 -120 -121 43 -96 c24 -53 58 -131 77 -173 l35 -75 -63
-114 c-76 -136 -105 -208 -145 -360 -16 -63 -33 -118 -37 -122 -4 -3 -83 -36
-177 -72 l-170 -65 0 -167 0 -168 150 -57 c83 -31 162 -61 176 -67 22 -9 29
-22 43 -84 28 -113 82 -252 151 -384 34 -66 65 -129 67 -140 3 -14 26 11 92
99 l89 117 -46 98 c-53 114 -99 256 -118 362 -21 122 -17 366 9 487 100 465
424 841 855 992 163 57 272 75 462 74 232 0 390 -37 590 -138 448 -227 735
-695 735 -1200 0 -354 -139 -676 -404 -940 -198 -196 -399 -304 -676 -362
-120 -25 -399 -23 -523 4 l-88 19 -117 -89 c-64 -49 -118 -93 -120 -97 -3 -9
206 -80 236 -80 21 0 63 -42 85 -85 8 -17 27 -69 42 -115 15 -47 38 -104 51
-127 24 -42 25 -42 87 -45 34 -2 107 -2 163 0 l101 3 63 167 c34 92 67 172 74
179 6 6 56 23 111 38 135 36 241 80 360 150 55 32 106 58 113 58 7 0 89 -33
183 -73 l170 -74 115 115 115 115 -59 140 c-33 76 -68 155 -77 175 -17 35 -17
36 10 79 72 114 163 335 205 497 13 53 52 77 231 138 73 25 137 51 141 58 14
21 10 313 -4 324 -7 5 -58 26 -113 45 -55 20 -133 49 -172 64 l-72 29 -15 66
c-35 151 -126 372 -197 476 -16 23 -29 45 -29 50 0 4 35 86 77 181 l77 173
-104 104 c-56 56 -113 108 -125 115 -19 10 -32 7 -91 -23 -38 -19 -113 -53
-166 -77 l-97 -42 -59 36 c-108 65 -264 134 -392 172 -69 20 -129 40 -134 45
-5 4 -39 84 -76 176 l-66 168 -170 3 -169 2 -19 -52z"/>
<path d="M3030 3540 c-73 -82 -136 -150 -140 -150 -4 0 -32 21 -60 47 l-53 48
-65 -70 c-155 -167 -210 -320 -182 -497 l12 -75 -397 -524 -397 -524 141 -3
c77 -1 141 -6 141 -10 0 -4 -158 -196 -351 -427 -193 -231 -353 -424 -356
-428 -3 -4 138 99 314 229 707 528 876 653 1046 780 151 111 174 132 155 137
-13 3 -95 20 -183 37 -88 18 -164 35 -168 39 -4 5 90 79 210 167 l218 158 88
-3 c173 -5 280 39 409 170 48 49 95 100 104 115 17 25 17 26 -36 79 l-53 53
140 159 c77 87 143 168 147 180 6 17 -2 32 -36 69 -49 53 -78 68 -110 54 -13
-5 -84 -77 -158 -159 -74 -82 -139 -149 -145 -150 -5 0 -57 44 -114 99 -98 92
-104 100 -90 118 8 11 69 84 137 161 117 135 135 167 114 196 -27 37 -86 75
-116 75 -30 0 -45 -13 -166 -150z"/>
</g>
</svg>
